<svg xmlns="http://www.w3.org/2000/svg" viewBox="0 0 1577.927 288.046"><g data-name="Layer 2"><g data-name="Layer 1"><path fill="#c0e7ff" d="M375.16 112.36a87.73 87.73 0 00-17.4 1.74 71.74 71.74 0 00-100.46-51 95.75 95.75 0 00-180 65.35 79.82 79.82 0 002.4 159.6h295.46a87.84 87.84 0 100-175.69zM1172.09 112.36a87.73 87.73 0 00-17.4 1.74 71.74 71.74 0 00-100.47-51 95.75 95.75 0 00-180 65.35 79.82 79.82 0 002.4 159.6h295.47a87.84 87.84 0 100-175.69z"/><path fill="none" d="M0 0h1577.93v288.05H0z"/></g></g></svg>